<?xml version="1.0" standalone="no"?>
<!DOCTYPE svg PUBLIC "-//W3C//DTD SVG 20010904//EN"
 "http://www.w3.org/TR/2001/REC-SVG-20010904/DTD/svg10.dtd">
<svg version="1.0" xmlns="http://www.w3.org/2000/svg"
 width="512.000000pt" height="512.000000pt" viewBox="0 0 512.000000 512.000000"
 preserveAspectRatio="xMidYMid meet">
<metadata>
Created by potrace 1.11, written by Peter Selinger 2001-2013
</metadata>
<g transform="translate(0.000000,512.000000) scale(0.100000,-0.100000)"
fill="#000000" stroke="none">
<path d="M2467 4900 c-142 -36 -250 -163 -264 -312 -13 -144 68 -288 198 -350
l49 -22 2 -161 3 -160 100 0 100 0 3 161 2 161 51 24 c30 14 73 47 105 82 200
216 54 571 -240 583 -39 2 -88 -1 -109 -6z m166 -217 c63 -32 87 -132 49 -202
-50 -94 -200 -93 -256 1 -20 33 -21 110 -2 147 38 72 128 96 209 54z"/>
<path d="M1590 3774 c-191 -50 -344 -202 -397 -395 -16 -56 -18 -113 -18 -479
0 -374 2 -421 18 -475 48 -154 156 -285 289 -349 41 -20 83 -36 92 -36 24 0
20 -8 -27 -59 -23 -25 -51 -58 -63 -72 -19 -26 -24 -27 -149 -31 -117 -4 -135
-7 -182 -31 -130 -67 -212 -193 -233 -359 -14 -117 16 -168 100 -168 65 0 93
37 103 134 7 74 51 164 94 192 32 22 119 41 131 29 3 -3 0 -27 -7 -53 -21 -79
-29 -201 -20 -307 49 -562 471 -1005 1041 -1089 697 -104 1321 342 1425 1019
17 115 12 278 -11 365 -9 30 -12 58 -7 63 14 14 99 -3 134 -27 43 -28 87 -118
94 -192 10 -97 38 -134 103 -134 84 0 114 51 100 168 -21 166 -103 292 -233
359 -46 24 -67 27 -182 32 l-131 6 -69 73 c-63 67 -67 73 -46 79 59 15 163 76
218 127 72 66 116 132 152 224 l26 67 3 414 c4 461 0 502 -60 623 -46 92 -152
195 -248 241 -41 19 -99 40 -128 46 -36 8 -337 11 -955 10 -754 0 -911 -3
-957 -15z m1938 -218 c79 -37 152 -114 182 -192 20 -55 21 -70 18 -478 l-3
-421 -27 -50 c-36 -68 -101 -128 -173 -162 l-60 -28 -910 0 -910 0 -56 26
c-79 37 -133 90 -171 167 l-33 67 0 420 0 420 33 67 c33 67 86 123 147 156 76
40 97 41 1015 39 l885 -2 63 -29z m-423 -1551 c124 -23 216 -74 310 -169 88
-89 133 -166 161 -277 20 -79 15 -293 -10 -383 -137 -495 -583 -801 -1104
-756 -258 23 -470 118 -643 290 -184 183 -283 402 -296 655 -6 127 9 210 58
312 81 169 256 301 442 332 29 5 266 9 529 10 381 1 492 -2 553 -14z"/>
<path d="M1977 3250 c-180 -46 -299 -225 -266 -404 41 -228 284 -358 492 -263
74 34 127 84 168 159 32 60 34 68 34 163 0 95 -2 103 -34 163 -61 113 -164
180 -288 187 -37 2 -85 0 -106 -5z m153 -215 c66 -34 97 -129 63 -195 -42 -80
-158 -108 -223 -54 -77 65 -81 165 -8 230 12 12 30 24 38 27 30 11 102 7 130
-8z"/>
<path d="M2949 3244 c-106 -32 -201 -127 -234 -231 -13 -40 -16 -77 -13 -132
8 -133 83 -242 207 -299 46 -22 71 -27 141 -27 77 0 92 3 152 33 291 143 258
564 -52 656 -65 19 -139 19 -201 0z m199 -227 c103 -95 41 -257 -99 -257 -142
0 -201 189 -84 266 57 37 137 33 183 -9z"/>
</g>
</svg>
